<svg width="25" height="25" viewBox="0 0 25 25" fill="none" xmlns="http://www.w3.org/2000/svg">
<path d="M16.983 13.3579C18.1676 12.4259 19.0323 11.1478 19.4567 9.70142C19.8811 8.25507 19.8442 6.7124 19.351 5.28802C18.8579 3.86364 17.933 2.62838 16.7051 1.75411C15.4773 0.879837 14.0074 0.410019 12.5001 0.410019C10.9927 0.410019 9.52286 0.879837 8.29497 1.75411C7.06708 2.62838 6.14222 3.86364 5.64906 5.28802C5.1559 6.7124 5.11897 8.25507 5.54339 9.70142C5.96782 11.1478 6.8325 12.4259 8.01714 13.3579C5.98723 14.1712 4.21607 15.52 2.89247 17.2607C1.56887 19.0014 0.742446 21.0687 0.501307 23.2421C0.483852 23.4008 0.497823 23.5613 0.542421 23.7146C0.587019 23.8679 0.661372 24.0109 0.761233 24.1354C0.962913 24.387 1.25625 24.5481 1.57672 24.5833C1.89719 24.6186 2.21854 24.5251 2.47008 24.3234C2.72161 24.1217 2.88272 23.8284 2.91797 23.5079C3.18331 21.1459 4.3096 18.9643 6.08166 17.3802C7.85372 15.7961 10.1473 14.9203 12.5242 14.9203C14.9011 14.9203 17.1947 15.7961 18.9668 17.3802C20.7389 18.9643 21.8651 21.1459 22.1305 23.5079C22.1633 23.8048 22.305 24.079 22.5281 24.2776C22.7513 24.4762 23.0401 24.5851 23.3388 24.5833H23.4717C23.7885 24.5469 24.078 24.3867 24.2772 24.1378C24.4763 23.8888 24.569 23.5712 24.5351 23.2542C24.2928 21.0746 23.4619 19.002 22.1315 17.2587C20.8011 15.5153 19.0213 14.1669 16.983 13.3579ZM12.5001 12.5C11.5441 12.5 10.6096 12.2165 9.8148 11.6854C9.01996 11.1543 8.40046 10.3995 8.03464 9.5163C7.66882 8.63312 7.5731 7.6613 7.75959 6.72372C7.94609 5.78615 8.40642 4.92493 9.08237 4.24898C9.75833 3.57302 10.6195 3.11269 11.5571 2.9262C12.4947 2.7397 13.4665 2.83542 14.3497 3.20124C15.2329 3.56707 15.9877 4.18657 16.5188 4.9814C17.0499 5.77624 17.3334 6.71072 17.3334 7.66666C17.3334 8.94854 16.8242 10.1779 15.9177 11.0843C15.0113 11.9908 13.7819 12.5 12.5001 12.5Z" fill="white" fill-opacity="0.75"/>
</svg>
