<svg width="18" height="16" viewBox="0 0 18 16" fill="none" xmlns="http://www.w3.org/2000/svg">
<path d="M17.9967 9.67173C17.9956 11.3048 17.3466 12.8707 16.1922 14.0259C15.0378 15.181 13.4722 15.8309 11.8392 15.833H0.753418C0.554506 15.833 0.36374 15.754 0.223088 15.6133C0.0824357 15.4727 0.00341797 15.2819 0.00341797 15.083C0.00341797 14.8841 0.0824357 14.6933 0.223088 14.5526C0.36374 14.412 0.554506 14.333 0.753418 14.333H11.8392C13.0676 14.322 14.242 13.8262 15.1068 12.9537C15.9716 12.0811 16.4567 10.9023 16.4567 9.67379C16.4567 8.44529 15.9716 7.2665 15.1068 6.39393C14.242 5.52136 13.0676 5.02562 11.8392 5.0146H2.84667L5.30104 7.03248C5.37761 7.09486 5.4411 7.17176 5.48787 7.25875C5.53464 7.34573 5.56377 7.4411 5.57359 7.53938C5.58341 7.63765 5.57371 7.7369 5.54507 7.83142C5.51643 7.92594 5.4694 8.01387 5.40668 8.09017C5.34397 8.16647 5.2668 8.22962 5.17961 8.27602C5.09242 8.32241 4.99692 8.35113 4.89861 8.36052C4.80029 8.36991 4.70109 8.35979 4.60669 8.33074C4.5123 8.30168 4.42457 8.25427 4.34854 8.19123L0.277168 4.8436C0.268168 4.8361 0.261418 4.8271 0.252793 4.81923C0.23327 4.80152 0.214742 4.78274 0.197293 4.76298L0.191293 4.75735C0.186043 4.75135 0.179293 4.74685 0.174043 4.74085V4.7386C0.166168 4.72923 0.160543 4.71835 0.153418 4.7086C0.138667 4.689 0.125021 4.6686 0.112543 4.64748C0.109543 4.6426 0.105418 4.6381 0.102793 4.63285C0.100168 4.6276 0.093418 4.62048 0.090043 4.61373C0.086668 4.60698 0.082168 4.59348 0.077668 4.58373C0.067543 4.56198 0.0589181 4.53985 0.0506681 4.51698L0.0480431 4.51023C0.0405431 4.48885 0.033793 4.4671 0.028168 4.44535C0.022543 4.4236 0.0187932 4.40073 0.0154182 4.37785C0.0131682 4.36398 0.00866821 4.35085 0.00754321 4.33698C0.00641821 4.3231 0.00754321 4.31035 0.00754321 4.29723C0.00754321 4.2841 0.00416791 4.27585 0.00416791 4.2646C0.00416791 4.25335 0.00716821 4.24285 0.00754321 4.2316C0.00791821 4.22035 0.00754321 4.20535 0.00754321 4.19223C0.00754321 4.1791 0.0131682 4.16485 0.0154182 4.15098C0.0187932 4.1281 0.022918 4.1056 0.028168 4.08348C0.033418 4.06135 0.0405431 4.03998 0.0480431 4.0186L0.0506681 4.01185C0.0589181 3.98898 0.067543 3.96685 0.077668 3.9451C0.082168 3.93535 0.084793 3.92485 0.090043 3.9151C0.095293 3.90535 0.0990431 3.90273 0.102793 3.89598C0.106543 3.88923 0.109543 3.88623 0.112543 3.88135C0.124778 3.86025 0.138173 3.83985 0.152668 3.82023C0.159793 3.81048 0.165418 3.7996 0.173293 3.79023V3.78835C0.180793 3.77898 0.190168 3.7726 0.198043 3.7636C0.215293 3.74485 0.232918 3.7261 0.252043 3.7096C0.260668 3.70173 0.267418 3.69273 0.276418 3.68523L0.280168 3.68185L4.35004 0.337604C4.42607 0.274558 4.5138 0.227149 4.60819 0.198097C4.70259 0.169046 4.80179 0.158924 4.90011 0.168314C4.99842 0.177704 5.09392 0.20642 5.18111 0.252814C5.2683 0.299208 5.34547 0.362366 5.40818 0.438662C5.4709 0.514959 5.51793 0.602891 5.54657 0.697411C5.57521 0.791931 5.5849 0.891178 5.57509 0.989454C5.56527 1.08773 5.53614 1.1831 5.48937 1.27009C5.4426 1.35708 5.37911 1.43397 5.30254 1.49635L2.84817 3.5146H11.8407C13.4729 3.51679 15.0376 4.16622 16.1916 5.32046C17.3456 6.47471 17.9948 8.03953 17.9967 9.67173Z" fill="white" fill-opacity="0.75"/>
</svg>
