<svg width="25" height="17" viewBox="0 0 25 17" fill="none" xmlns="http://www.w3.org/2000/svg">
<path d="M8.87508 6.08334C8.55461 6.08334 8.24727 6.21065 8.02066 6.43725C7.79405 6.66386 7.66675 6.9712 7.66675 7.29167V9.70834C7.66675 10.0288 7.79405 10.3362 8.02066 10.5628C8.24727 10.7894 8.55461 10.9167 8.87508 10.9167C9.19555 10.9167 9.5029 10.7894 9.7295 10.5628C9.95611 10.3362 10.0834 10.0288 10.0834 9.70834V7.29167C10.0834 6.9712 9.95611 6.66386 9.7295 6.43725C9.5029 6.21065 9.19555 6.08334 8.87508 6.08334ZM23.3751 7.29167C23.6956 7.29167 24.0029 7.16437 24.2295 6.93776C24.4561 6.71115 24.5834 6.40381 24.5834 6.08334V1.25001C24.5834 0.929535 24.4561 0.622191 24.2295 0.395585C24.0029 0.168978 23.6956 0.0416718 23.3751 0.0416718H1.62508C1.30461 0.0416718 0.997267 0.168978 0.770661 0.395585C0.544054 0.622191 0.416748 0.929535 0.416748 1.25001V6.08334C0.416748 6.40381 0.544054 6.71115 0.770661 6.93776C0.997267 7.16437 1.30461 7.29167 1.62508 7.29167C1.94555 7.29167 2.2529 7.41898 2.4795 7.64559C2.70611 7.87219 2.83341 8.17954 2.83341 8.50001C2.83341 8.82048 2.70611 9.12782 2.4795 9.35443C2.2529 9.58103 1.94555 9.70834 1.62508 9.70834C1.30461 9.70834 0.997267 9.83564 0.770661 10.0623C0.544054 10.2889 0.416748 10.5962 0.416748 10.9167V15.75C0.416748 16.0705 0.544054 16.3778 0.770661 16.6044C0.997267 16.831 1.30461 16.9583 1.62508 16.9583H23.3751C23.6956 16.9583 24.0029 16.831 24.2295 16.6044C24.4561 16.3778 24.5834 16.0705 24.5834 15.75V10.9167C24.5834 10.5962 24.4561 10.2889 24.2295 10.0623C24.0029 9.83564 23.6956 9.70834 23.3751 9.70834C23.0546 9.70834 22.7473 9.58103 22.5207 9.35443C22.2941 9.12782 22.1667 8.82048 22.1667 8.50001C22.1667 8.17954 22.2941 7.87219 22.5207 7.64559C22.7473 7.41898 23.0546 7.29167 23.3751 7.29167ZM22.1667 5.09251C21.4669 5.3465 20.8623 5.80981 20.435 6.41945C20.0077 7.0291 19.7785 7.75553 19.7785 8.50001C19.7785 9.24448 20.0077 9.97091 20.435 10.5806C20.8623 11.1902 21.4669 11.6535 22.1667 11.9075V14.5417H10.0834C10.0834 14.2212 9.95611 13.9139 9.7295 13.6873C9.5029 13.4606 9.19555 13.3333 8.87508 13.3333C8.55461 13.3333 8.24727 13.4606 8.02066 13.6873C7.79405 13.9139 7.66675 14.2212 7.66675 14.5417H2.83341V11.9075C3.53322 11.6535 4.13786 11.1902 4.56515 10.5806C4.99244 9.97091 5.22166 9.24448 5.22166 8.50001C5.22166 7.75553 4.99244 7.0291 4.56515 6.41945C4.13786 5.80981 3.53322 5.3465 2.83341 5.09251V2.45834H7.66675C7.66675 2.77881 7.79405 3.08615 8.02066 3.31276C8.24727 3.53937 8.55461 3.66667 8.87508 3.66667C9.19555 3.66667 9.5029 3.53937 9.7295 3.31276C9.95611 3.08615 10.0834 2.77881 10.0834 2.45834H22.1667V5.09251Z" fill="white" fill-opacity="0.75"/>
</svg>
